<?xml version="1.0" encoding="UTF-8" standalone="no"?>
<svg xmlns:dc="http://purl.org/dc/elements/1.1/"
    xmlns:cc="http://creativecommons.org/ns#"
    xmlns:rdf="http://www.w3.org/1999/02/22-rdf-syntax-ns#"
    xmlns:svg="http://www.w3.org/2000/svg"
    xmlns="http://www.w3.org/2000/svg"
    width="160.51814mm"
    height="151.30309mm"
    viewBox="0 0 160.51815 151.30309"
    version="1.1"
    id="svg8">
    <defs id="defs2" />
    <g
        id="layer2"
        style="display:inline"
        transform="translate(83.144388,-84.457184)">
        <ellipse
            style="fill:#6600ff;fill-rule:evenodd;stroke-width:0;stroke-opacity:0.773279"
            id="path25"
            cx="-1.3363459"
            cy="151.27457"
            rx="66.282852"
            ry="66.817383" />
        <ellipse
            style="fill:#453748;fill-rule:evenodd;stroke-width:0;stroke-opacity:0.773279"
            id="path27"
            cx="-0.26726973"
            cy="151.67546"
            rx="55.859329"
            ry="57.062042" />
        <ellipse
            style="fill:#6600ff;fill-rule:evenodd;stroke-width:0;stroke-opacity:0.773279"
            id="path29"
            cx="1.5900312e-07"
            cy="152.07634"
            rx="47.306709"
            ry="49.444866" />
        <ellipse
            style="fill:#453748;fill-rule:evenodd;stroke-width:0;stroke-opacity:0.773279"
            id="path31"
            cx="-0.13363484"
            cy="152.47726"
            rx="38.887718"
            ry="41.025867" />
        <ellipse
            style="fill:#6600ff;fill-rule:evenodd;stroke-width:0;stroke-opacity:0.773279"
            id="path33"
            cx="-0.26726997"
            cy="151.54181"
            rx="31.805073"
            ry="33.141418" />
        <ellipse
            style="fill:#453748;fill-rule:evenodd;stroke-width:0;stroke-opacity:0.773279"
            id="path35"
            cx="-0.26726973"
            cy="152.07635"
            rx="24.321527"
            ry="25.657873" />
        <ellipse
            style="fill:#6600ff;fill-rule:evenodd;stroke-width:0;stroke-opacity:0.773279"
            id="path37"
            cx="-0.13363467"
            cy="152.61089"
            rx="18.040693"
            ry="19.510675" />
        <ellipse
            style="fill:#6600ff;fill-rule:evenodd;stroke-width:0;stroke-opacity:0.773279"
            id="path39"
            cx="-0.13363479"
            cy="152.61089"
            rx="12.695303"
            ry="13.363478" />
        <circle
            style="fill:#6600ff;fill-rule:evenodd;stroke-width:0;stroke-opacity:0.773279"
            id="path41"
            cx="-1.0583335"
            cy="152.6109"
            r="6.6817379" />
    </g>
    <g
        id="layer3"
        style="display:inline"
        transform="translate(83.144388,-84.457184)">
        <path
            style="fill:#453748;stroke:none;stroke-width:0.264583px;stroke-linecap:butt;stroke-linejoin:miter;stroke-opacity:1"
            d="m -59.608972,121.96335 32.339613,6.68174 19.2434053,5.07812 -11.2253203,16.57071 c 0,0 9.8889733,8.28536 18.9761368,9.35443 0,0 24.5887962,4.27632 38.2195422,-2.13815 0,0 12.561668,-2.93996 23.252449,-17.90706 l 8.13666,-10.45824 c 5.903973,25.31826 -1.842094,38.94674 -7.289565,54.30943 -6.210111,12.70033 -39.162715,33.33827 3.775762,35.61632 l -135.975901,1.51191 c 23.741672,-10.0813 39.9837,-9.95497 16.471692,-24.6032 -3.803893,-3.87757 -10.243881,-1.1649 -15.91434,-0.37606 l -8.63647,-41.98817 -4.90908,-34.4889 z"
            id="path44" />
    </g>
    <g
        id="layer4"
        style="display:inline"
        transform="translate(83.144388,-84.457184)">
        <path
            style="fill:#ab37c8;stroke:none;stroke-width:0.264583px;stroke-linecap:butt;stroke-linejoin:miter;stroke-opacity:1"
            d="m -73.220725,129.57334 52.07957,9.3813 -5.040133,16.27658 c 0,0 9.621704,13.89802 29.9341878,13.89802 0,0 23.4535182,2.15 39.3285182,-5.03154 0,0 11.339285,-2.26785 20.977678,-19.65476 0,0 5.102679,17.76487 -16.81994,45.35714 0,0 -19.087798,18.52083 -33.450893,19.65476 0,0 -19.6547618,1.32292 -27.78125,-4.91369 0,0 28.726191,-1.88988 37.230655,-8.50447 0,0 20.221726,-8.88244 23.056548,-21.54464 0,0 -22.111608,16.25298 -34.77381,17.76488 0,0 -19.0877977,4.34673 -39.876488,-4.34672 0,0 -17.575893,-7.37054 -20.221727,-10.77233 l -8.88244,8.69346 c 0,0 -5.102679,4.15773 -6.614583,-7.18155 z"
            id="path47" />
    </g>
    <g
        id="layer1"
        transform="translate(83.144388,-84.457184)">
        <text
            xml:space="preserve"
            style="font-style:normal;font-weight:normal;font-size:10.5833px;line-height:1.25;font-family:sans-serif;fill:#000000;fill-opacity:1;stroke:none;stroke-width:0.264583"
            x="-82.020844"
            y="235.47916"
            id="text31"><tspan
         id="tspan29"
         x="-82.020844"
         y="235.47916"
         style="font-style:normal;font-variant:normal;font-weight:normal;font-stretch:normal;font-size:16.9333px;font-family:'Bauhaus 93';-inkscape-font-specification:'Bauhaus 93, ';fill:#800080;stroke-width:0.264583">DATAPACK TRACKER</tspan></text>
    </g>
</svg>
